# xmcd CD database file
#
# Track frame offsets:
#	150
#	17610
#	31817
#	44960
#	60332
#	74007
#	90235
#	105702
#	120577
#	134892
#	150105
#	167215
#
# Disc length: 2356 seconds
#
# Revision: 0
# Processed by: cddbd v1.5.1PL0 Copyright (c) Steve Scherf et al.
# Submitted via: CDex 1.40Beta9
#
DISCID=9c09320c
DTITLE=Henrique and Rafael - Henrique and Rafael
DYEAR=1997
DGENRE=Country
TTITLE0=Sou teu herói, teu bandido
TTITLE1=Me procura, me liga
TTITLE2=Paraíso de um caboclo
TTITLE3=Eu, ela e meu caminhão
TTITLE4=Sm mulher não vale nada
TTITLE5=Não faz assim comigo
TTITLE6=Pela estrada do amor
TTITLE7=Eu te preciso
TTITLE8=Vivo apaixonado
TTITLE9=Paixão soffrida
TTITLE10=Perdoa coração
TTITLE11=Estou te amando
EXTD=YEAR: 1997 ID3G: 2
EXTT0=
EXTT1=
EXTT2=
EXTT3=
EXTT4=
EXTT5=
EXTT6=
EXTT7=
EXTT8=
EXTT9=
EXTT10=
EXTT11=
PLAYORDER=
